/vscmnt/brussel_pixiu_data/_data_brussel/112/vsc11236/PredSimResults/SUBJ10mtu3D/worker10.mot
version=1
nRows=7
nColumns=50
inDegrees=yes
endheader
                time	         pelvis_tilt	         pelvis_list	     pelvis_rotation	           pelvis_tx	           pelvis_ty	           pelvis_tz	       hip_flexion_r	     hip_adduction_r	      hip_rotation_r	        knee_angle_r	       ankle_angle_r	         mtp_angle_r	       hip_flexion_l	     hip_adduction_l	      hip_rotation_l	        knee_angle_l	       ankle_angle_l	         mtp_angle_l	    lumbar_extension	      lumbar_bending	     lumbar_rotation	 ercspn_r/activation	 intobl_r/activation	 extobl_r/activation	    abd_r/activation	    add_r/activation	hamstrings_r/activation	bifemsh_r/activation	glut_max_r/activation	iliopsoas_r/activation	rect_fem_r/activation	  vasti_r/activation	gastroc_r/activation	 soleus_r/activation	tib_ant_r/activation	 ercspn_l/activation	 intobl_l/activation	 extobl_l/activation	    abd_l/activation	    add_l/activation	hamstrings_l/activation	bifemsh_l/activation	glut_max_l/activation	iliopsoas_l/activation	rect_fem_l/activation	  vasti_l/activation	gastroc_l/activation	 soleus_l/activation	tib_ant_l/activation	
          0.00000000	         -3.55720002	         -0.37762936	          5.32115341	          0.00000000	          0.82831668	         -0.00955049	         30.06340935	         -1.20832548	         -3.51380780	         -8.29261502	          3.42450119	          0.26196262	        -16.49007516	          0.42863025	          2.24891927	         -6.10973281	          6.09063020	         27.88291418	         -8.18059120	         -0.83412201	         -5.09163360	          0.13585520	          0.14420799	          0.01000129	          0.01332480	          0.15056485	          0.12408743	          0.05983936	          0.02635514	          0.04786564	          0.01000243	          0.01178431	          0.01000053	          0.01000026	          0.37558223	          0.08050606	          0.01000023	          0.01000061	          0.06403494	          0.01000342	          0.02401302	          0.20164788	          0.03146478	          0.38286189	          0.01000397	          0.01000057	          0.24064707	          0.21964303	          0.02142128	
          0.01071076	         -3.58979226	         -0.34389569	          5.32593350	          0.01529288	          0.82730883	         -0.00918600	         29.59921162	         -0.89617150	         -2.57497118	         -9.15682870	          3.19072430	          0.26062406	        -16.38036811	          0.43128903	          1.76527039	         -8.13911149	          5.44207581	         29.51844957	         -7.93097437	         -0.44219464	         -5.47206836	          0.11528378	          0.12236521	          0.01000152	          0.01130654	          0.23405547	          0.10529264	          0.08514279	          0.07508711	          0.04061535	          0.01000232	          0.01000074	          0.01637204	          0.01592506	          0.37427410	          0.12288060	          0.01000049	          0.01000061	          0.05433542	          0.01185483	          0.03215747	          0.17110398	          0.02669902	          0.36488039	          0.01000454	          0.01000382	          0.20419562	          0.20736810	          0.01817656	
          0.02142153	         -3.61154978	         -0.33807544	          5.30208970	          0.03084741	          0.82641050	         -0.00876359	         29.02644234	         -0.60573869	         -1.62657106	        -10.03040149	          2.88018951	          0.25413322	        -16.14855339	          0.39571533	          1.25209335	        -10.41876561	          4.69768858	         31.03789851	         -7.65975248	         -0.01340746	         -5.83033556	          0.11153502	          0.10536203	          0.01000093	          0.04438194	          0.19962839	          0.09059016	          0.07224951	          0.09725154	          0.03446328	          0.01000080	          0.01000066	          0.01389231	          0.01351296	          0.42732532	          0.12247182	          0.01000020	          0.01000069	          0.04610510	          0.01006147	          0.02730531	          0.14518668	          0.02265497	          0.34012954	          0.01000281	          0.01000061	          0.17326555	          0.19110347	          0.01542333	
          0.03213229	         -3.62417840	         -0.34714568	          5.24274264	          0.04646993	          0.82572293	         -0.00824983	         28.41926377	         -0.31703434	         -0.81212086	        -10.80259220	          2.39472286	          0.24480831	        -15.73639195	          0.33417979	          0.70193282	        -13.01775990	          3.84299523	         32.35633547	         -7.39128828	          0.43073874	         -6.15660269	          0.11212789	          0.08940278	          0.01000103	          0.07882452	          0.21808095	          0.07905733	          0.06130743	          0.09739665	          0.02924308	          0.01000084	          0.03666325	          0.01178825	          0.01146630	          0.46847868	          0.13567857	          0.01000024	          0.01000066	          0.03912145	          0.01000440	          0.02675956	          0.12319519	          0.01922347	          0.30820088	          0.01000210	          0.01000070	          0.14702054	          0.16408658	          0.01308716	
          0.04284305	         -3.62869527	         -0.37270564	          5.15172325	          0.06202504	          0.82534973	         -0.00765476	         27.80881641	         -0.02066556	         -0.14600875	        -11.56069064	          1.93496064	          0.23062001	        -15.10320563	          0.23975673	          0.10619980	        -15.97846141	          2.88878774	         33.30669741	         -7.13994110	          0.89034592	         -6.44800337	          0.10757740	          0.07586083	          0.01000113	          0.10507699	          0.21966654	          0.07489060	          0.05202280	          0.08574557	          0.02481359	          0.01000076	          0.07238447	          0.01000343	          0.01000072	          0.50042244	          0.15156267	          0.01000033	          0.01000064	          0.03319563	          0.01296109	          0.05268063	          0.10453493	          0.01631174	          0.27005817	          0.01000141	          0.01000046	          0.12475093	          0.13923204	          0.01110489	
          0.05355382	         -3.62673805	         -0.41723560	          5.03298551	          0.07742334	          0.82539200	         -0.00699323	         27.17503823	          0.28329483	          0.38894762	        -12.28891430	          1.63346787	          0.21442892	        -14.22549089	          0.10170333	         -0.54627406	        -19.30918898	          1.81851693	         33.73305882	         -6.91286310	          1.36546006	         -6.70405012	          0.09801404	          0.06437008	          0.01000107	          0.12988489	          0.20322102	          0.06968319	          0.04414440	          0.07276952	          0.02105506	          0.01000071	          0.11098678	          0.01000165	          0.01000100	          0.51256079	          0.17005358	          0.01000034	          0.01000075	          0.02816740	          0.01762670	          0.04715962	          0.08870151	          0.01384105	          0.22916801	          0.01000113	          0.01000027	          0.10585457	          0.11814221	          0.01000022	
          0.06426458	         -3.62077134	         -0.47592155	          4.88553012	          0.09257558	          0.82597141	         -0.00628012	         26.48856937	          0.58534960	          0.79473990	        -12.92897124	          1.53704111	          0.19884491	        -13.08909824	         -0.08450988	         -1.26336393	        -22.98120217	          0.53301710	         33.58384879	         -6.71765023	          1.84786372	         -6.92226680	          0.09250842	          0.05461985	          0.01000104	          0.14783020	          0.19127324	          0.06754385	          0.03745929	          0.06176058	          0.01786585	          0.01000069	          0.13814186	          0.01000312	          0.01000174	          0.50245779	          0.18284698	          0.01000036	          0.01000083	          0.02390082	          0.04632976	          0.04050228	          0.07526792	          0.01174464	          0.19445579	          0.01000096	          0.01000016	          0.08982049	          0.10024689	          0.01000017	
